REM DIRINDEX 1\2\5,1\2\6,1\2\7,1\2\8,1\3\9,1\3\10,1\3\11,1\4\12,1\4\13,1\4\14,1\4\15,1\4\16
REM DIRNAME cjc034,folder01,folder02,folder03,folder04,folder05,folder06,folder07,folder08,folder09,folder10,folder11,folder12,folder13,folder14,folder15
TITLE ""
FILE "1200_sec03_1087_1094.mp3" MP3
  TRACK 01 AUDIO
    TITLE "0:"
    INDEX 01 00:00:00
  TRACK 02 AUDIO
    TITLE "12:cjc034_08037"
    INDEX 01 00:00:17
  TRACK 03 AUDIO
    TITLE "0:"
    INDEX 01 00:01:26
  TRACK 04 AUDIO
    TITLE "13:cjc034_08038"
    INDEX 01 00:01:62
  TRACK 05 AUDIO
    TITLE "0:"
    INDEX 01 00:05:18
  TRACK 06 AUDIO
    TITLE "14:cjc034_08039"
    INDEX 01 00:05:46
  TRACK 07 AUDIO
    TITLE "0:"
    INDEX 01 00:06:55
  TRACK 08 AUDIO
    TITLE "15:cjc034_08040"
    INDEX 01 00:07:15
  TRACK 09 AUDIO
    TITLE "0:"
    INDEX 01 00:12:07
  TRACK 10 AUDIO
    TITLE "12:cjc034_08041"
    INDEX 01 00:13:37
  TRACK 11 AUDIO
    TITLE "0:"
    INDEX 01 00:14:64
  TRACK 12 AUDIO
    TITLE "13:cjc034_08042"
    INDEX 01 00:15:23
  TRACK 13 AUDIO
    TITLE "0:"
    INDEX 01 00:16:46
  TRACK 14 AUDIO
    TITLE "14:cjc034_08043"
    INDEX 01 00:17:04
  TRACK 15 AUDIO
    TITLE "0:"
    INDEX 01 00:18:29
  TRACK 16 AUDIO
    TITLE "15:cjc034_08044"
    INDEX 01 00:18:60
  TRACK 17 AUDIO
    TITLE "0:"
    INDEX 01 00:23:65
  TRACK 18 AUDIO
    TITLE "12:cjc034_08045"
    INDEX 01 00:25:21
  TRACK 19 AUDIO
    TITLE "0:"
    INDEX 01 00:26:52
  TRACK 20 AUDIO
    TITLE "13:cjc034_08046"
    INDEX 01 00:27:12
  TRACK 21 AUDIO
    TITLE "0:"
    INDEX 01 00:28:37
  TRACK 22 AUDIO
    TITLE "14:cjc034_08047"
    INDEX 01 00:28:66
  TRACK 23 AUDIO
    TITLE "0:"
    INDEX 01 00:30:22
  TRACK 24 AUDIO
    TITLE "15:cjc034_08048"
    INDEX 01 00:30:55
  TRACK 25 AUDIO
    TITLE "0:"
    INDEX 01 00:34:61
  TRACK 26 AUDIO
    TITLE "16:cjc034_08049"
    INDEX 01 00:36:17
  TRACK 27 AUDIO
    TITLE "0:"
    INDEX 01 00:41:61
  TRACK 28 AUDIO
    TITLE "12:cjc034_08050"
    INDEX 01 00:42:63
  TRACK 29 AUDIO
    TITLE "0:"
    INDEX 01 00:44:26
  TRACK 30 AUDIO
    TITLE "13:cjc034_08051"
    INDEX 01 00:44:60
  TRACK 31 AUDIO
    TITLE "0:"
    INDEX 01 00:48:16
  TRACK 32 AUDIO
    TITLE "14:cjc034_08052"
    INDEX 01 00:48:51
  TRACK 33 AUDIO
    TITLE "0:"
    INDEX 01 00:50:13
  TRACK 34 AUDIO
    TITLE "15:cjc034_08053"
    INDEX 01 00:50:46
  TRACK 35 AUDIO
    TITLE "0:"
    INDEX 01 00:55:26
  TRACK 36 AUDIO
    TITLE "12:cjc034_08054"
    INDEX 01 00:56:61
  TRACK 37 AUDIO
    TITLE "0:"
    INDEX 01 00:58:18
  TRACK 38 AUDIO
    TITLE "13:cjc034_08055"
    INDEX 01 00:58:48
  TRACK 39 AUDIO
    TITLE "0:"
    INDEX 01 01:02:65
  TRACK 40 AUDIO
    TITLE "14:cjc034_08056"
    INDEX 01 01:03:22
  TRACK 41 AUDIO
    TITLE "0:"
    INDEX 01 01:04:52
  TRACK 42 AUDIO
    TITLE "15:cjc034_08057"
    INDEX 01 01:05:11
  TRACK 43 AUDIO
    TITLE "0:"
    INDEX 01 01:10:08
  TRACK 44 AUDIO
    TITLE "12:cjc034_08058"
    INDEX 01 01:11:39
  TRACK 45 AUDIO
    TITLE "0:"
    INDEX 01 01:13:22
  TRACK 46 AUDIO
    TITLE "13:cjc034_08059"
    INDEX 01 01:13:55
  TRACK 47 AUDIO
    TITLE "0:"
    INDEX 01 01:16:01
  TRACK 48 AUDIO
    TITLE "14:cjc034_08060"
    INDEX 01 01:16:30
  TRACK 49 AUDIO
    TITLE "0:"
    INDEX 01 01:18:13
  TRACK 50 AUDIO
    TITLE "15:cjc034_08061"
    INDEX 01 01:18:47
  TRACK 51 AUDIO
    TITLE "0:"
    INDEX 01 01:23:07
  TRACK 52 AUDIO
    TITLE "12:cjc034_08062"
    INDEX 01 01:24:39
  TRACK 53 AUDIO
    TITLE "0:"
    INDEX 01 01:25:55
  TRACK 54 AUDIO
    TITLE "13:cjc034_08063"
    INDEX 01 01:26:13
  TRACK 55 AUDIO
    TITLE "0:"
    INDEX 01 01:28:22
  TRACK 56 AUDIO
    TITLE "14:cjc034_08064"
    INDEX 01 01:28:55
  TRACK 57 AUDIO
    TITLE "0:"
    INDEX 01 01:29:70
  TRACK 58 AUDIO
    TITLE "15:cjc034_08065"
    INDEX 01 01:30:28
  TRACK 59 AUDIO
    TITLE "0:"
    INDEX 01 01:33:58
  TRACK 60 AUDIO
    TITLE "12:cjc034_08066"
    INDEX 01 01:35:14
  TRACK 61 AUDIO
    TITLE "0:"
    INDEX 01 01:36:31
  TRACK 62 AUDIO
    TITLE "13:cjc034_08067"
    INDEX 01 01:36:64
  TRACK 63 AUDIO
    TITLE "0:"
    INDEX 01 01:39:55
  TRACK 64 AUDIO
    TITLE "14:cjc034_08068"
    INDEX 01 01:40:11
  TRACK 65 AUDIO
    TITLE "0:"
    INDEX 01 01:41:28
  TRACK 66 AUDIO
    TITLE "15:cjc034_08069"
    INDEX 01 01:41:61
  TRACK 67 AUDIO
    TITLE "0:"
    INDEX 01 01:45:49
